<svg xmlns="http://www.w3.org/2000/svg" viewBox="0 0 30 30" id="vector">
    <path id="path"
        d="M 17.456 12.095 C 17.018 12.146 16.562 12.04 16.132 12.141 C 15.689 12.298 15.585 12.981 15.998 13.233 C 16.068 13.318 16.342 13.301 16.157 13.417 C 15.947 13.609 15.757 13.89 15.521 14.02 C 14.655 13.678 13.558 14.307 13.469 15.248 C 13.438 15.5 13.473 15.761 13.568 15.997 C 13.256 16.364 12.813 16.639 12.595 17.077 C 12.431 17.548 12.991 18.067 13.442 17.821 C 13.79 17.651 13.968 17.278 14.273 17.052 C 14.348 16.968 14.433 16.788 14.564 16.904 C 15.453 17.197 16.496 16.481 16.528 15.541 C 16.543 15.326 16.512 15.108 16.435 14.907 C 16.659 14.683 16.888 14.439 17.109 14.227 C 17.211 14.667 17.822 14.862 18.142 14.532 C 18.502 14.151 18.264 13.586 18.342 13.126 C 18.375 12.769 18.343 12.272 17.933 12.147 C 17.78 12.094 17.616 12.091 17.456 12.095 Z M 14.946 14.937 C 15.438 14.9 15.706 15.652 15.267 15.911 C 15.007 16.163 14.55 16.041 14.432 15.695 C 14.262 15.408 14.409 14.973 14.765 14.948 C 14.825 14.938 14.886 14.934 14.947 14.937 Z"
        fill="#ffffff" />
    <path id="path_1"
        d="M 14.962 4.001 C 13.661 3.996 12.482 5.196 12.567 6.507 C 12.574 6.668 12.599 6.827 12.631 6.986 C 9.327 7.783 6.557 10.456 5.655 13.736 C 4.825 16.636 5.463 19.914 7.347 22.276 C 9.202 24.658 12.214 26.091 15.237 25.995 C 18.252 25.935 21.193 24.375 22.927 21.905 C 24.67 19.474 25.18 16.209 24.231 13.368 C 23.297 10.494 20.948 8.124 18.071 7.192 C 17.838 7.112 17.595 7.047 17.362 6.984 C 17.648 5.897 17.038 4.681 16.018 4.224 C 15.69 4.07 15.325 3.994 14.962 4.001 Z M 14.98 5.237 C 15.737 5.192 16.385 6.036 16.133 6.759 C 15.38 6.664 14.598 6.687 13.857 6.749 C 13.606 6.029 14.242 5.24 14.98 5.237 Z M 14.997 7.935 C 17.861 7.907 20.68 9.467 22.187 11.909 C 23.469 13.949 23.82 16.56 23.068 18.872 L 21.465 18.872 C 22.423 16.539 21.982 13.682 20.295 11.792 C 18.585 9.822 15.731 8.966 13.215 9.642 C 10.965 10.212 9.029 11.965 8.35 14.2 C 7.872 15.716 7.941 17.396 8.533 18.87 C 7.996 18.864 7.451 18.892 6.921 18.857 C 6.025 16.112 6.721 12.908 8.663 10.774 C 10.239 8.994 12.607 7.915 14.997 7.935 Z M 15.1 10.655 C 17.437 10.666 19.717 12.233 20.439 14.48 C 20.919 15.909 20.793 17.526 20.105 18.867 C 16.698 18.861 13.291 18.88 9.885 18.857 C 8.827 16.823 9.15 14.144 10.753 12.479 C 11.858 11.299 13.475 10.619 15.101 10.655 Z M 9.52 20.109 L 22.556 20.109 C 21.241 22.769 18.413 24.617 15.443 24.744 C 12.657 24.908 9.813 23.579 8.174 21.309 C 7.895 20.93 7.647 20.529 7.434 20.109 L 9.52 20.109 Z"
        fill="#ffffff" />
</svg>
