<svg xmlns="http://www.w3.org/2000/svg" viewBox="0 0 30 30" id="vector">
    <path id="path"
        d="M 4.61 16.88 C 4.61 15.73 4.97 14.71 5.69 13.81 C 6.373 12.931 7.343 12.318 8.43 12.08 C 8.74 10.71 9.45 9.59 10.54 8.71 C 11.63 7.83 12.89 7.39 14.3 7.39 C 15.68 7.39 16.91 7.82 17.99 8.67 C 19.07 9.52 19.77 10.62 20.09 11.96 L 20.42 11.96 C 21.287 11.956 22.141 12.179 22.895 12.607 C 23.649 13.035 24.279 13.653 24.72 14.4 C 25.304 15.389 25.526 16.553 25.345 17.687 C 25.165 18.822 24.594 19.86 23.732 20.619 C 22.87 21.379 21.769 21.814 20.62 21.85 L 9.41 21.85 C 8.771 21.831 8.141 21.686 7.558 21.423 C 6.974 21.161 6.448 20.786 6.01 20.32 C 5.558 19.87 5.2 19.334 4.96 18.743 C 4.719 18.151 4.6 17.518 4.61 16.88 Z M 6.32 16.88 C 6.32 17.75 6.62 18.5 7.22 19.14 C 7.82 19.78 8.55 20.12 9.41 20.17 L 20.6 20.17 C 21.015 20.154 21.423 20.054 21.8 19.878 C 22.176 19.701 22.513 19.45 22.79 19.14 C 23.187 18.739 23.47 18.24 23.609 17.693 C 23.749 17.147 23.74 16.573 23.584 16.031 C 23.427 15.489 23.129 14.998 22.72 14.61 C 22.418 14.301 22.057 14.057 21.658 13.892 C 21.26 13.727 20.832 13.645 20.4 13.65 L 18.8 13.65 C 18.69 13.65 18.63 13.59 18.63 13.47 L 18.56 12.9 C 18.463 11.847 17.961 10.871 17.16 10.18 C 16.381 9.464 15.358 9.07 14.3 9.08 C 13.244 9.066 12.223 9.46 11.45 10.18 C 10.657 10.874 10.165 11.85 10.08 12.9 L 10 13.47 C 10 13.59 9.93 13.65 9.8 13.65 L 9.27 13.65 C 8.469 13.735 7.726 14.111 7.183 14.706 C 6.64 15.301 6.333 16.074 6.32 16.88 Z"
        fill="#ffffff" />
</svg>
