<svg xmlns="http://www.w3.org/2000/svg" viewBox="0 0 30 30" id="vector">
    <path id="path"
        d="M 15 4.656 C 9.287 4.656 4.656 9.287 4.656 15 C 4.656 20.713 9.287 25.344 15 25.344 C 20.713 25.344 25.344 20.713 25.344 15 C 25.344 9.287 20.713 4.656 15 4.656 Z M 15 23.168 C 10.496 23.168 6.832 19.504 6.832 15 C 6.832 10.496 10.496 6.832 15 6.832 C 19.504 6.832 23.168 10.496 23.168 15 C 23.168 19.504 19.504 23.168 15 23.168 Z"
        fill="#ffffff" />
    <path id="path_1"
        d="M 21.551 11.163 C 21.497 11.07 21.387 11.025 21.284 11.053 L 13.934 13.058 C 13.894 13.069 13.857 13.091 13.828 13.121 L 8.484 18.549 C 8.409 18.626 8.394 18.744 8.448 18.837 C 8.503 18.93 8.613 18.975 8.716 18.947 L 16.066 16.942 C 16.086 16.937 16.106 16.928 16.123 16.918 C 16.141 16.908 16.158 16.894 16.173 16.879 L 21.516 11.45 C 21.591 11.374 21.606 11.256 21.551 11.163 Z M 10.466 17.655 L 14.046 14.017 L 15.391 16.312 Z"
        fill="#ffffff" />
</svg>
