<svg xmlns="http://www.w3.org/2000/svg" id="vector" viewBox="0 0 512 512"><path id="path" fill="#fff200" d="M 87.879 441.501 L 70.484 424.106 L 134.194 360.396 L 151.589 377.791 Z M 243.7 415.9 L 268.3 415.9 L 268.3 506 L 243.7 506 Z M 243.7 6 L 268.3 6 L 268.3 96.1 L 243.7 96.1 Z M 424.086 70.498 L 441.481 87.893 L 377.771 151.603 L 360.376 134.208 Z M 87.896 70.515 L 151.606 134.225 L 134.211 151.62 L 70.501 87.91 Z M 6 243.7 L 96.1 243.7 L 96.1 268.3 L 6 268.3 Z M 415.9 243.7 L 506 243.7 L 506 268.3 L 415.9 268.3 Z M 424.104 441.518 L 360.394 377.808 L 377.789 360.413 L 441.499 424.123 Z M 256 117.7 C 178.9 117.7 116.1 180.4 116.1 257.6 C 116.1 334.8 178.9 397.4 256 397.4 C 333.1 397.4 395.9 334.7 395.9 257.5 C 395.9 180.3 333.1 117.7 256 117.7 Z M 256 372.8 C 192.4 372.8 140.7 321.1 140.7 257.5 C 140.7 193.9 192.4 142.2 256 142.2 C 319.6 142.2 371.3 193.9 371.3 257.5 C 371.3 321.1 319.6 372.8 256 372.8 Z"/></svg>