<svg xmlns="http://www.w3.org/2000/svg" id="vector" viewBox="0 0 512 512"><path id="path" fill="#fff200" d="M 141 5.6 L 154.9 5.6 L 154.9 56.7 L 141 56.7 Z M 243.19 42.149 L 253.019 51.978 L 216.886 88.111 L 207.057 78.282 Z M 52.682 42.164 L 88.815 78.297 L 78.986 88.126 L 42.853 51.993 Z M 6.3 140.3 L 57.4 140.3 L 57.4 154.2 L 6.3 154.2 Z M 102.9 195.3 C 90.4 183.4 82.6 166.6 82.6 148.1 C 82.6 112.1 111.9 82.8 147.9 82.8 C 180.7 82.8 207.9 107.1 212.5 138.6 C 216.8 136.8 221.3 135.3 225.8 134 C 219.2 97 186.8 68.8 148 68.8 C 104.3 68.8 68.8 104.3 68.8 148 C 68.8 167.5 75.9 185.3 87.5 199.1 C 92.5 197.5 97.6 196.2 102.9 195.3 Z"/><path id="path_1" fill="#fff" d="M 410.4 200.1 C 400 200.1 389.7 201.9 379.9 205.5 C 354.8 159.8 307.8 131.5 256 131.5 C 204.3 131.5 157.2 159.7 132.1 205.5 C 122.2 201.9 112 200.1 101.6 200.1 C 51.8 200.1 11.3 240.6 11.3 290.4 C 11.3 340.2 51.8 380.7 101.6 380.7 C 113.4 380.7 125 378.4 135.8 373.9 L 135.8 363.9 C 125.1 368.9 113.5 371.6 101.6 371.6 C 56.8 371.6 20.4 335.2 20.4 290.4 C 20.4 245.6 56.8 209.2 101.6 209.2 C 112.2 209.2 122.6 211.3 132.5 215.4 L 136.4 217 L 138.3 213.3 C 161.3 168.5 206.4 140.6 256 140.6 C 305.6 140.6 350.7 168.4 373.7 213.3 L 375.6 217 L 379.5 215.4 C 389.4 211.3 399.8 209.2 410.4 209.2 C 455.2 209.2 491.6 245.6 491.6 290.4 C 491.6 335.2 455.2 371.6 410.4 371.6 C 398.5 371.6 386.9 369 376.2 363.9 L 376.2 373.9 C 387 378.4 398.6 380.7 410.4 380.7 C 460.2 380.7 500.7 340.2 500.7 290.4 C 500.7 240.6 460.2 200.1 410.4 200.1 Z"/><path id="path_2" fill="#fff" d="M 410.4 194.6 C 399.4 194.8 388.8 196.6 378.4 200.2 C 380.5 201 382.5 201.9 384.6 202.7 C 358.6 156.2 309.6 126 256 126 C 202.4 126 153.4 156.2 127.4 202.7 C 129.5 201.9 131.5 201 133.6 200.2 C 85.9 183.9 32.8 207 13.2 253.7 C -5 297.2 12.4 348.9 53 372.9 C 78.6 388 109.8 390.1 137.3 379.2 C 139.6 378.3 141.3 376.5 141.3 373.9 L 141.3 363.9 C 141.3 359.4 136.7 357.5 133.1 359.2 C 81.5 382.3 22.5 341.9 26.1 285.4 C 27.6 260.8 41.7 238.1 62.8 225.5 C 85.4 211.9 111.1 212.5 135 222.3 C 137.1 223.2 140.2 221.7 141.2 219.8 C 163.6 175.9 205.8 146 256 146 C 306.2 146 348.4 175.8 370.9 219.7 C 371.9 221.6 375 223.1 377.1 222.2 C 401 212.3 426.7 211.8 449.3 225.4 C 470.4 238 484.5 260.8 486 285.3 C 489.5 341.8 430.5 382.2 379 359.1 C 375.3 357.5 370.8 359.3 370.8 363.8 L 370.8 373.8 C 370.8 376.4 372.5 378.2 374.8 379.1 C 418.4 396.3 469 379.4 493 339 C 515.4 301.1 508.4 251.2 476.5 220.9 C 458.5 204 435 194.9 410.4 194.6 C 403.4 194.5 403.3 205.5 410.4 205.5 C 461.7 206.2 502.7 252.6 494.2 304 C 485.3 358.1 427.9 388.3 377.7 368.6 C 379 370.4 380.4 372.1 381.7 373.9 L 381.7 363.9 C 379 365.5 376.2 367.1 373.5 368.6 C 417.9 388.5 470.9 369.6 490.2 324.1 C 507.8 282.8 489.7 233.2 449.6 213 C 425.5 200.8 398.8 201.4 374.1 211.6 C 376.2 212.4 378.2 213.3 380.3 214.1 C 356.1 166.9 309.9 135 256 135 C 202.1 135 155.9 166.9 131.7 214.1 C 133.8 213.3 135.8 212.4 137.9 211.6 C 95 194 44.7 209.3 23.8 252.3 C 4.1 292.8 19.3 342.9 58.2 365.5 C 83 379.9 112.6 380.3 138.5 368.7 C 135.8 367.1 133 365.5 130.3 364 L 130.3 374 C 131.6 372.2 133 370.5 134.3 368.7 C 79.5 390.3 17.6 351.7 16.7 291.7 C 15.9 232.4 75.4 191.8 130.6 210.7 C 132.8 211.5 135.7 210.2 136.8 208.2 C 161 165 206.1 136.9 256 136.9 C 305.9 136.9 350.9 164.9 375.1 208.2 C 376.2 210.2 379 211.5 381.3 210.7 C 390.8 207.5 400.3 205.7 410.4 205.5 C 417.5 205.4 417.5 194.5 410.4 194.6 Z"/><path id="path_3" fill="#fff" d="M 205.8 385.9 L 200.7 385.9 C 199.6 385.9 198.8 385 198.8 384 L 198.8 318.9 C 198.8 317.8 199.7 317 200.7 317 L 205.8 317 C 206.9 317 207.7 317.9 207.7 318.9 L 207.7 384 C 207.7 385 206.9 385.9 205.8 385.9 Z"/><path id="path_4" fill="#fff" d="M 168.8 353.9 L 168.8 348.8 C 168.8 347.7 169.7 346.9 170.7 346.9 L 235.8 346.9 C 236.9 346.9 237.7 347.8 237.7 348.8 L 237.7 353.9 C 237.7 355 236.8 355.8 235.8 355.8 L 170.7 355.8 C 169.7 355.9 168.8 355 168.8 353.9 Z"/><path id="path_5" fill="#fff" d="M 180.7 377.6 L 177.1 374 C 176.4 373.3 176.4 372 177.1 371.3 L 223.1 325.3 C 223.8 324.6 225.1 324.6 225.8 325.3 L 229.4 328.9 C 230.1 329.6 230.1 330.9 229.4 331.6 L 183.4 377.6 C 182.7 378.3 181.4 378.3 180.7 377.6 Z"/><path id="path_6" fill="#fff" d="M 177.1 328.8 L 180.7 325.2 C 181.4 324.5 182.7 324.5 183.4 325.2 L 229.4 371.2 C 230.1 371.9 230.1 373.2 229.4 373.9 L 225.8 377.5 C 225.1 378.2 223.8 378.2 223.1 377.5 L 177.1 331.5 C 176.4 330.8 176.4 329.6 177.1 328.8 Z M 310.8 385.9 L 305.7 385.9 C 304.6 385.9 303.8 385 303.8 384 L 303.8 318.9 C 303.8 317.8 304.7 317 305.7 317 L 310.8 317 C 311.9 317 312.7 317.9 312.7 318.9 L 312.7 384 C 312.7 385 311.9 385.9 310.8 385.9 Z"/><path id="path_7" fill="#fff" d="M 273.8 353.9 L 273.8 348.8 C 273.8 347.7 274.7 346.9 275.7 346.9 L 340.8 346.9 C 341.9 346.9 342.7 347.8 342.7 348.8 L 342.7 353.9 C 342.7 355 341.8 355.8 340.8 355.8 L 275.7 355.8 C 274.7 355.9 273.8 355 273.8 353.9 Z"/><path id="path_8" fill="#fff" d="M 285.7 377.6 L 282.1 374 C 281.4 373.3 281.4 372 282.1 371.3 L 328.1 325.3 C 328.8 324.6 330.1 324.6 330.8 325.3 L 334.4 328.9 C 335.1 329.6 335.1 330.9 334.4 331.6 L 288.4 377.6 C 287.7 378.3 286.4 378.3 285.7 377.6 Z"/><path id="path_9" fill="#fff" d="M 282.1 328.8 L 285.7 325.2 C 286.4 324.5 287.7 324.5 288.4 325.2 L 334.4 371.2 C 335.1 371.9 335.1 373.2 334.4 373.9 L 330.8 377.5 C 330.1 378.2 328.8 378.2 328.1 377.5 L 282.1 331.5 C 281.4 330.8 281.4 329.6 282.1 328.8 Z"/></svg>