<svg xmlns="http://www.w3.org/2000/svg" viewBox="0 0 30 30" id="vector">
    <path id="path"
        d="M 7.56 17.19 C 7.56 16.31 7.8 15.3 8.28 14.16 C 8.76 13.02 9.38 11.91 10.14 10.85 C 11.358 9.181 12.717 7.619 14.2 6.18 L 14.95 5.46 C 15.2 5.72 15.48 5.96 15.78 6.18 C 16.19 6.6 16.82 7.29 17.66 8.27 C 18.5 9.25 19.23 10.12 19.83 10.92 C 20.54 11.93 21.15 13.02 21.64 14.17 C 22.13 15.32 22.38 16.33 22.38 17.2 C 22.377 19.154 21.604 21.031 20.23 22.42 C 19.537 23.113 18.714 23.662 17.808 24.035 C 16.901 24.407 15.93 24.596 14.95 24.59 C 13.95 24.59 13 24.4 12.09 24.02 C 10.733 23.474 9.572 22.528 8.764 21.309 C 7.955 20.09 7.535 18.653 7.56 17.19 Z M 9.82 14.26 C 9.82 15.09 9.99 15.75 10.34 16.25 C 10.69 16.74 11.22 16.99 11.93 16.99 C 12.65 16.99 13.18 16.74 13.54 16.25 C 13.89 15.76 14.07 15.1 14.08 14.26 C 14.107 13.554 13.918 12.857 13.54 12.26 C 13.19 11.77 12.65 11.52 11.93 11.52 C 11.22 11.52 10.69 11.77 10.34 12.26 C 9.99 12.76 9.82 13.42 9.82 14.26 Z M 11.39 14.26 L 11.39 13.91 L 11.41 13.58 C 11.42 13.44 11.43 13.33 11.46 13.26 L 11.55 13.02 C 11.59 12.94 11.64 12.87 11.7 12.84 C 11.77 12.799 11.849 12.779 11.93 12.78 C 12.07 12.78 12.18 12.82 12.26 12.9 C 12.34 12.98 12.4 13.11 12.43 13.28 C 12.484 13.6 12.507 13.925 12.5 14.25 L 12.49 14.77 L 12.43 15.22 C 12.4 15.39 12.34 15.52 12.26 15.6 C 12.18 15.68 12.07 15.72 11.93 15.72 C 11.849 15.721 11.77 15.701 11.7 15.66 C 11.63 15.62 11.577 15.556 11.55 15.48 C 11.466 15.305 11.418 15.114 11.41 14.92 L 11.39 14.6 L 11.39 14.26 Z M 11.98 22.01 L 13.3 22.01 L 18.29 11.27 L 16.94 11.27 L 11.98 22.01 Z M 16.28 19.02 C 16.29 19.86 16.48 20.52 16.83 21.02 C 17.18 21.51 17.72 21.76 18.43 21.76 C 19.15 21.76 19.68 21.51 20.03 21.02 C 20.38 20.53 20.55 19.86 20.56 19.02 C 20.591 18.318 20.406 17.623 20.03 17.03 C 19.68 16.54 19.15 16.29 18.43 16.29 C 17.72 16.29 17.18 16.54 16.83 17.03 C 16.442 17.619 16.25 18.315 16.28 19.02 Z M 17.85 19.02 L 17.86 18.5 L 17.92 18.05 C 17.95 17.87 18.01 17.75 18.09 17.67 C 18.17 17.59 18.28 17.55 18.42 17.55 C 18.51 17.55 18.59 17.57 18.66 17.61 C 18.73 17.65 18.78 17.71 18.82 17.8 L 18.92 18.04 C 18.95 18.11 18.96 18.22 18.97 18.36 L 18.98 18.68 L 18.98 19.37 L 18.97 19.69 L 18.92 20.01 L 18.82 20.25 L 18.66 20.44 L 18.42 20.5 C 18.28 20.5 18.17 20.46 18.09 20.38 C 18.01 20.3 17.95 20.17 17.92 20 C 17.869 19.676 17.845 19.348 17.85 19.02 Z"
        fill="#ffffff" />
</svg>
