<svg xmlns="http://www.w3.org/2000/svg" id="vector" viewBox="0 0 30 30"><path id="path" fill="#fff" d="M 15 4.495 C 9.207 4.495 4.495 9.207 4.495 15 C 4.495 20.792 9.207 25.505 15 25.505 C 20.793 25.505 25.505 20.793 25.505 15 C 25.505 9.207 20.793 4.495 15 4.495 Z M 12.634 18.231 L 10.882 18.231 L 9.39 15.44 C 8.976 14.694 8.51 14.024 8.178 12.876 L 8.138 12.876 C 8.188 14.023 8.043 15 8.043 16.14 L 8.043 18.232 L 6.513 18.232 L 6.513 11.346 L 8.603 11.346 L 10.053 13.916 C 10.467 14.651 10.871 15.554 11.191 16.319 L 11.212 16.319 C 11.119 15.172 11.103 14.349 11.103 13.293 L 11.103 11.346 L 12.633 11.346 L 12.633 18.232 Z M 14.434 18.614 L 13.387 18.614 L 15.604 10.962 L 16.649 10.962 Z M 21.495 18.231 L 20.957 16.318 L 18.957 16.318 L 18.461 18.231 L 16.834 18.231 L 18.958 11.345 L 21.028 11.345 L 23.204 18.231 Z M 19.942 12.493 L 19.921 12.493 C 19.817 12.875 19.713 13.361 19.599 13.763 L 19.185 15.171 L 20.728 15.171 L 20.294 13.764 C 20.169 13.35 20.045 12.875 19.942 12.493 Z"/></svg>