<svg xmlns="http://www.w3.org/2000/svg" id="vector" viewBox="0 0 512 512"><path id="path" fill="#fff200" d="M 251.7 506 C 151 506 59.6 446.4 19 354.1 L 6 324.7 L 35.4 337.7 C 64.6 350.5 95.6 357.1 127.7 357.1 C 254.2 357 357 254.2 357 127.7 C 357 95.6 350.5 64.5 337.6 35.4 L 324.7 6 L 354.1 19 C 446.4 59.6 506 151 506 251.7 C 506 391.9 391.9 506 251.7 506 Z M 56.4 371.9 C 97.7 439 171.4 481 251.7 481 C 378.2 481 481 378.2 481 251.7 C 481 171.4 439 97.7 371.8 56.4 C 378.5 79.4 381.9 103.3 381.9 127.7 C 382 267.9 267.9 382 127.7 382 C 103.3 382 79.4 378.6 56.4 371.9 Z"/></svg>