<svg xmlns="http://www.w3.org/2000/svg" viewBox="0 0 512 512" id="vector">
    <path id="path"
        d="M 41.3 220.3 C 44.6 217.7 48 215.3 51.6 213.1 C 43.1 205.4 35.6 196.5 29.7 186.4 C 41 189.9 52.7 191.8 64.7 192.1 C 133.7 193.4 190.9 138.4 192.2 69.4 C 192.4 57.4 191 45.6 187.9 34.2 C 220.2 54.9 240.1 91 239.8 130.1 C 243.9 129.2 248 128.5 252.1 127.9 C 251.6 79.7 223.5 35.9 179.5 15.6 L 165.1 8.9 L 171.2 23.5 C 177.2 38 180.2 53.3 179.9 69.1 C 178.7 131.3 127.1 181 64.9 179.8 C 49.1 179.5 33.9 176 19.7 169.4 L 5.3 162.7 L 11.4 177.3 C 18.4 193.9 28.7 208.5 41.3 220.3 Z"
        fill="#fff200" />
    <path id="path_1"
        d="M 256.1 415.8 C 215.7 415.8 177.3 398.2 150.1 367.3 C 135.5 376.6 118.9 381.5 101.7 381.5 C 51.9 381.5 11.4 341 11.4 291.2 C 11.4 241.4 51.9 200.9 101.7 200.9 C 112.1 200.9 122.3 202.7 132.2 206.3 C 157.3 160.6 204.4 132.3 256.1 132.3 C 307.8 132.3 354.9 160.5 380 206.3 C 389.9 202.7 400.1 200.9 410.5 200.9 C 460.3 200.9 500.8 241.4 500.8 291.2 C 500.8 341 460.3 381.5 410.5 381.5 C 393.3 381.5 376.7 376.6 362.1 367.3 C 334.9 398.1 296.5 415.8 256.1 415.8 Z M 151.8 355 L 154.5 358.2 C 180 389 217 406.7 256.1 406.7 C 295.2 406.7 332.2 389.1 357.7 358.3 L 360.4 355.1 L 363.8 357.5 C 377.6 367.2 393.8 372.4 410.4 372.4 C 455.2 372.4 491.6 336 491.6 291.2 C 491.6 246.4 455.2 210 410.5 210 C 399.9 210 389.5 212.1 379.6 216.2 L 375.7 217.8 L 373.8 214.1 C 350.9 169.3 305.8 141.5 256.1 141.5 C 206.5 141.5 161.4 169.3 138.4 214.2 L 136.5 217.9 L 132.6 216.3 C 122.7 212.2 112.3 210.1 101.7 210.1 C 56.9 210.1 20.5 246.5 20.5 291.3 C 20.5 336.1 56.9 372.5 101.7 372.5 C 118.4 372.5 134.5 367.4 148.3 357.6 L 151.8 355 Z"
        fill="#ffffff" />
    <path id="path_2"
        d="M 256.1 410.3 C 216.6 409.9 180.3 392.7 154 363.4 C 152.4 361.6 149.3 361.3 147.4 362.5 C 120.6 379 87.1 380.6 59.7 364.8 C 35.9 351.1 19.7 326.2 17.3 298.8 C 11.9 237.1 73.1 191.7 130.9 211.5 C 133.1 212.3 136 211 137.1 209 C 161.3 165.8 206.4 137.7 256.2 137.7 C 306.1 137.7 351.1 165.7 375.3 209 C 376.4 211 379.2 212.3 381.5 211.5 C 439.2 191.8 500.5 237 495.1 298.8 C 492.7 326.2 476.4 351.1 452.7 364.8 C 425.2 380.6 391.7 379 365 362.5 C 363 361.3 359.9 361.6 358.4 363.4 C 331.9 392.7 295.6 409.9 256.1 410.3 C 249.1 410.4 249 421.3 256.1 421.2 C 298.4 420.8 337.8 402.5 365.9 371.1 L 359.3 372 C 404.8 400 465.6 386.2 493 339.8 C 518.5 296.7 505.4 240.1 464.2 211.9 C 439.1 194.7 407.1 191.1 378.5 200.9 C 380.6 201.7 382.6 202.6 384.7 203.4 C 358.7 156.9 309.8 126.7 256.1 126.7 C 202.5 126.7 153.6 156.9 127.5 203.4 C 129.6 202.6 131.6 201.7 133.7 200.9 C 84.1 183.9 29.3 209.7 11.5 259.1 C -5.6 306.5 18.8 360.2 65 379.6 C 93.8 391.7 126.5 388.3 152.9 372 L 146.3 371.1 C 174.5 402.5 213.9 420.8 256.1 421.2 C 263.1 421.3 263.2 410.4 256.1 410.3 Z"
        fill="#ffffff" />
    <path id="path_3"
        d="M 147.9 358.9 C 174.9 391.5 213.2 412.1 256.1 412.1 C 298.9 412.1 337.3 391.4 364.3 358.9 L 357.7 359.8 C 378.8 374.7 403.6 381.4 429.2 375.8 C 452 370.9 472.1 356.3 484.3 336.6 C 509.9 295.3 495.1 239.3 452.8 215.6 C 428.1 201.8 400 201.9 374.2 212.5 C 376.3 213.3 378.3 214.2 380.4 215 C 356.2 167.8 310 135.9 256.1 135.9 C 202.2 135.9 156 167.8 131.8 215 C 133.9 214.2 135.9 213.3 138 212.5 C 92.3 193.6 39.6 212.7 21 259.8 C 3.1 305.1 28 357.3 73.8 373.2 C 101.7 382.9 130.9 376.5 154.6 359.8 C 160.3 355.8 154.8 346.3 149.1 350.3 C 125.4 367 96 372.5 69.2 359.5 C 45.2 347.9 28.4 324 26.3 297.4 C 24.2 270.9 36.2 244.7 58 229.4 C 81.3 212.9 109.3 212.3 135.1 223 C 137.2 223.9 140.3 222.4 141.3 220.5 C 163.8 176.7 205.9 146.8 256.2 146.8 C 306.4 146.8 348.6 176.6 371 220.5 C 372 222.4 375.1 223.9 377.2 223 C 402.7 212.5 430.2 212.8 453.4 228.7 C 475.7 244 488.1 270.5 486 297.4 C 483.9 323.6 467.6 347.2 444.2 358.9 C 417.1 372.5 387.3 367.2 363.2 350.2 C 361.4 348.9 358 349.3 356.6 351.1 C 331.4 381.5 296.3 401.1 256.2 401.1 C 216.1 401.1 181 381.5 155.8 351.1 C 151.2 345.7 143.4 353.5 147.9 358.9 Z"
        fill="#ffffff" />
</svg>
