<svg xmlns="http://www.w3.org/2000/svg" viewBox="0 0 512 512" id="vector">
    <path id="path"
        d="M 238.3 86.4 L 470.2 86.4 L 496.2 48.3 L 6 48.3 L 6 52.5 L 29.2 86.4 Z M 249.1 239.5 L 101.1 239.5 L 118.4 264.9 L 355.4 264.9 L 372.7 239.5 Z M 282.2 118.8 L 81.3 118.8 L 98.7 144.2 L 488.6 144.2 L 506 118.8 L 305.8 118.8 Z M 173.9 414.2 L 127.9 414.2 L 161.8 463.7 L 195.6 414.2 Z M 217.9 381.9 L 247.7 381.9 L 265.1 356.5 L 146.4 356.5 L 163.8 381.9 L 194.3 381.9 Z M 261.9 176.6 L 62.8 176.6 L 80.2 201.9 L 419.2 201.9 L 436.5 176.6 Z M 261.9 324.1 L 317.1 324.1 L 334.5 298.7 L 164.8 298.7 L 182.2 324.1 L 238.3 324.1 Z"
        fill="#ffffff" />
</svg>
