<svg xmlns="http://www.w3.org/2000/svg" viewBox="0 0 30 30" id="vector">
    <path id="path"
        d="M 3.1 16.97 C 3.1 17.21 3.19 17.42 3.38 17.59 C 3.54 17.78 3.75 17.87 4.01 17.87 L 18.7 17.87 C 18.99 17.87 19.23 17.97 19.43 18.17 C 19.63 18.37 19.73 18.62 19.73 18.91 C 19.73 19.2 19.63 19.44 19.43 19.63 C 19.23 19.82 18.99 19.92 18.69 19.92 C 18.555 19.923 18.421 19.9 18.295 19.85 C 18.17 19.8 18.056 19.725 17.96 19.63 C 17.886 19.545 17.793 19.477 17.689 19.432 C 17.586 19.387 17.473 19.366 17.36 19.37 C 17.11 19.37 16.9 19.46 16.72 19.63 C 16.54 19.8 16.45 20.01 16.45 20.24 C 16.45 20.49 16.54 20.7 16.73 20.87 C 17.076 21.221 17.509 21.475 17.984 21.606 C 18.46 21.736 18.962 21.738 19.438 21.613 C 19.915 21.487 20.35 21.238 20.7 20.89 C 21.26 20.35 21.53 19.7 21.53 18.92 C 21.53 18.14 21.25 17.48 20.69 16.92 C 20.431 16.651 20.121 16.438 19.777 16.294 C 19.433 16.149 19.063 16.077 18.69 16.08 L 4.01 16.08 C 3.891 16.079 3.774 16.102 3.664 16.146 C 3.554 16.191 3.454 16.257 3.37 16.34 C 3.283 16.42 3.213 16.517 3.167 16.626 C 3.12 16.734 3.098 16.852 3.1 16.97 Z M 3.1 13.69 C 3.1 13.92 3.19 14.12 3.38 14.3 C 3.55 14.48 3.76 14.56 4.01 14.56 L 24.05 14.56 C 24.83 14.56 25.5 14.29 26.06 13.74 C 26.62 13.2 26.9 12.54 26.9 11.77 C 26.9 11 26.62 10.33 26.06 9.78 C 25.5 9.23 24.83 8.95 24.05 8.95 C 23.28 8.95 22.63 9.22 22.1 9.75 C 22.009 9.835 21.937 9.939 21.89 10.055 C 21.844 10.171 21.823 10.295 21.83 10.42 C 21.83 10.68 21.92 10.89 22.09 11.05 C 22.26 11.21 22.47 11.29 22.72 11.29 C 22.96 11.29 23.17 11.21 23.35 11.05 C 23.437 10.95 23.544 10.87 23.665 10.817 C 23.786 10.763 23.918 10.737 24.05 10.74 C 24.34 10.74 24.58 10.84 24.78 11.04 C 24.98 11.24 25.08 11.48 25.08 11.77 C 25.08 12.06 24.98 12.3 24.78 12.49 C 24.58 12.68 24.34 12.78 24.05 12.78 L 4.01 12.78 C 3.85 12.778 3.692 12.819 3.553 12.899 C 3.414 12.978 3.298 13.094 3.219 13.233 C 3.139 13.372 3.098 13.53 3.1 13.69 Z"
        fill="#ffffff" />
</svg>
